<?xml version="1.0" encoding="UTF-8" standalone="no" ?>
<!DOCTYPE svg PUBLIC "-//W3C//DTD SVG 1.1//EN" "http://www.w3.org/Graphics/SVG/1.1/DTD/svg11.dtd">
<svg xmlns="http://www.w3.org/2000/svg" xmlns:xlink="http://www.w3.org/1999/xlink" version="1.1" width="1080" height="1080" viewBox="0 0 1080 1080" xml:space="preserve">
<desc>Created with Fabric.js 5.2.4</desc>
<defs>
</defs>
<g transform="matrix(1 0 0 1 540 540)" id="b83a9d1b-7697-41f9-b822-ecb833dfdee3"  >
</g>
<g transform="matrix(1 0 0 1 540 540)" id="01d5284d-9df8-426e-8649-e75e22d95caa"  >
<rect style="stroke: none; stroke-width: 1; stroke-dasharray: none; stroke-linecap: butt; stroke-dashoffset: 0; stroke-linejoin: miter; stroke-miterlimit: 4; fill: #fff; fill-rule: nonzero; opacity: 1; visibility: hidden;" vector-effect="non-scaling-stroke"  x="-540" y="-540" rx="0" ry="0" width="1080" height="1080" />
</g>
<g transform="matrix(1 0 0 1 540 540)"  >
<path style="stroke: rgb(57,54,75); stroke-width: 0; stroke-dasharray: none; stroke-linecap: butt; stroke-dashoffset: 0; stroke-linejoin: miter; stroke-miterlimit: 4; fill: #fff; fill-rule: nonzero; opacity: 1;" vector-effect="non-scaling-stroke"  transform=" translate(-256, -249.34)" d="M 36.73 167.38 C 36.57 164.60999999999999 36.959999999999994 161.76 37.989999999999995 158.99 C 55.88999999999999 111.24000000000001 87.69 71.45 127.80999999999999 43.650000000000006 C 167.89 15.87 216.21 0 267.22 0 C 334.81000000000006 0 396.01 27.41 440.30000000000007 71.7 C 484.5900000000001 115.99000000000001 512.0000000000001 177.19 512.0000000000001 244.78000000000003 C 512.0000000000001 304.65000000000003 490.3900000000001 359.59000000000003 454.5300000000001 402.21000000000004 C 418.1300000000001 445.48 367.05000000000007 475.97 309.0100000000001 485.97 C 303.5600000000001 486.90000000000003 298.2400000000001 485.6 293.9900000000001 482.72 C 299.9900000000001 471.27000000000004 303.5600000000001 458.07000000000005 303.40000000000015 445.06000000000006 C 351.15000000000015 436.50000000000006 393.1200000000001 411.32000000000005 423.0600000000002 375.7300000000001 C 452.76000000000016 340.4100000000001 470.6700000000002 294.7300000000001 470.6700000000002 244.7800000000001 C 470.6700000000002 188.60000000000008 447.8900000000002 137.73000000000008 411.08000000000015 100.92000000000007 C 374.27000000000015 64.11000000000007 323.40000000000015 41.33000000000007 267.22000000000014 41.33000000000007 C 224.69000000000014 41.33000000000007 184.48000000000013 54.50000000000007 151.22000000000014 77.55000000000007 C 120.09000000000015 99.12000000000006 95.00000000000014 129.34000000000006 79.71000000000014 165.48000000000008 C 65.48000000000013 163.20000000000007 50.67000000000014 163.5300000000001 36.73000000000014 167.38000000000008 z M 209.69 230.70999999999998 L 209.69 311.77 L 222.35 311.77 C 226.85999999999999 311.77 229.95 311.21999999999997 231.60999999999999 310.13 C 233.27999999999997 309.03 234.10999999999999 306.53 234.10999999999999 302.61 L 234.10999999999999 230.71 L 269.75 230.71 L 269.75 291.38 C 269.75 301.17 269.1 309.06 267.79 315.05 C 266.48 321.04 264.05 326.11 260.48 330.26 C 256.92 334.40999999999997 252.05 337.28999999999996 245.87 338.9 C 239.69 340.51 231.67000000000002 341.32 221.81 341.32 C 211.95 341.32 203.96 340.51 197.84 338.9 C 191.73 337.28999999999996 186.88 334.40999999999997 183.32 330.26 C 179.76 326.11 177.32 321.03999999999996 176.01 315.05 C 174.70999999999998 309.06 174.04999999999998 301.17 174.04999999999998 291.38 L 174.04999999999998 230.70999999999998 L 209.69 230.70999999999998 z M 287.13 336.83 L 292.12 308.31 C 303.04 310.96 312.88 312.29 321.61 312.29 C 330.34000000000003 312.29 337.38 311.94 342.73 311.25 L 342.73 302.61 L 326.69 301.23 C 312.19 299.96000000000004 302.24 296.59000000000003 296.84 291.12 C 291.42999999999995 285.64 288.72999999999996 277.55 288.72999999999996 266.83 C 288.72999999999996 252.08999999999997 292.03 241.95 298.61999999999995 236.42 C 305.2099999999999 230.89 316.40999999999997 228.11999999999998 332.2099999999999 228.11999999999998 C 348.00999999999993 228.11999999999998 362.2699999999999 229.55999999999997 374.9799999999999 232.43999999999997 L 370.5299999999999 260.09 C 359.4799999999999 258.36999999999995 350.62999999999994 257.5 343.9699999999999 257.5 C 337.31999999999994 257.5 331.6799999999999 257.79 327.0399999999999 258.37 L 327.0399999999999 266.83 L 339.8799999999999 268.03999999999996 C 355.4399999999999 269.53999999999996 366.1899999999999 273.14 372.1299999999999 278.84 C 378.0699999999999 284.54999999999995 381.0399999999999 292.46999999999997 381.0399999999999 302.60999999999996 C 381.0399999999999 309.86999999999995 380.0299999999999 315.99999999999994 378.00999999999993 321.00999999999993 C 375.98999999999995 326.0299999999999 373.5899999999999 329.8299999999999 370.7899999999999 332.41999999999996 C 367.9999999999999 335.00999999999993 364.0499999999999 336.99999999999994 358.9399999999999 338.37999999999994 C 353.82999999999987 339.7699999999999 349.3499999999999 340.59999999999997 345.4899999999999 340.88999999999993 C 341.6299999999999 341.17999999999995 336.4899999999999 341.31999999999994 330.0699999999999 341.31999999999994 C 314.6299999999999 341.31999999999994 300.3099999999999 339.81999999999994 287.1299999999999 336.8299999999999 z M 217.74 179.60999999999999 L 219.24 196.39999999999998 C 215.04000000000002 198.14 209.78 199.01 203.44 199.01 C 197.10999999999999 199.01 192.03 198.34 188.19 197 C 184.35999999999999 195.67 181.34 193.58 179.14 190.71 C 176.95 187.84 175.41 184.47 174.54 180.61 C 173.67999999999998 176.74 173.23999999999998 171.97000000000003 173.23999999999998 166.31 C 173.23999999999998 160.64000000000001 173.67999999999998 155.86 174.54 151.96 C 175.41 148.06 176.95 144.68 179.14 141.81 C 183.41 136.28 191.23999999999998 133.51 202.64 133.51 C 205.17 133.51 208.16 133.76 211.58999999999997 134.26 C 215.02999999999997 134.76 217.56999999999996 135.38 219.23999999999998 136.10999999999999 L 216.23999999999998 151.41 C 211.90999999999997 150.48 207.93999999999997 150.01 204.33999999999997 150.01 C 200.73999999999998 150.01 198.23999999999998 150.34 196.83999999999997 151.01 C 195.43999999999997 151.67999999999998 194.73999999999998 153.01 194.73999999999998 155.01 L 194.73999999999998 181.20999999999998 C 197.33999999999997 181.73999999999998 199.98 182.01 202.64 182.01 C 208.30999999999997 182.01 213.33999999999997 181.20999999999998 217.73999999999998 179.60999999999999 z M 244.14000000000001 197.51 L 223.04000000000002 197.51 L 239.24 135.01 L 270.14 135.01 L 286.33 197.51 L 265.24 197.51 L 262.94 187.60999999999999 L 246.44 187.60999999999999 L 244.14 197.51 z M 252.16000000000003 154.20999999999998 L 248.46000000000004 171.70999999999998 L 260.82000000000005 171.70999999999998 L 257.21000000000004 154.20999999999998 L 252.16000000000003 154.20999999999998 z M 333.13 197.51 L 293.14 197.51 L 293.14 135.01 L 313.13 135.01 L 313.13 181.51 L 333.13 181.51 L 333.13 197.51 z M 381.63 197.51 L 341.63 197.51 L 341.63 135.01 L 361.63 135.01 L 361.63 181.51 L 381.63 181.51 L 381.63 197.51 z M 75.95 321.96 C 83.27000000000001 338.71 92 354.97999999999996 103.67 370.33 C 116.35 387.06 132.67000000000002 402.79999999999995 154.49 417.09999999999997 C 158.62 419.71999999999997 163.17000000000002 416.34999999999997 166.4 413.74999999999994 C 168.29 412.21999999999997 170.71 409.72999999999996 173.28 406.97999999999996 C 183.42000000000002 396.25999999999993 195.98 382.96999999999997 210.71 391.9 C 211.03 392.09 211.28 392.31 211.6 392.5 L 260.12 427.89 C 260.27 427.99 260.43 428.19 260.58 428.28999999999996 C 266.9 433.71999999999997 268.91999999999996 441.28 268.09999999999997 449.46999999999997 C 265.85999999999996 470.09999999999997 249.66999999999996 487.28999999999996 230.45999999999998 493.60999999999996 C 220.33999999999997 496.98999999999995 209.34999999999997 498.21999999999997 198.86999999999998 498.60999999999996 C 182.42 499.23999999999995 167.40999999999997 496.06999999999994 152.41999999999996 489.60999999999996 C 137.75999999999996 483.25999999999993 123.32999999999996 473.85999999999996 107.75999999999996 461.72999999999996 L 106.60999999999996 460.80999999999995 C 99.45999999999995 455.19999999999993 91.74999999999996 449.17999999999995 84.29999999999995 442.2699999999999 C 56.99999999999996 416.5899999999999 30.269999999999953 380.9099999999999 14.42999999999995 343.12999999999994 C 1.1399999999999508 311.41999999999996 -4.370000000000051 278.12999999999994 3.9099999999999504 247.87999999999994 C 8.47999999999995 231.29999999999995 17.38999999999995 216.72999999999993 31.10999999999995 207.96999999999994 C 43.07999999999995 200.28999999999994 58.42999999999995 197.04999999999995 77.42999999999995 200.83999999999995 C 79.61999999999995 201.23999999999995 81.44999999999995 202.73999999999995 82.26999999999995 204.73999999999995 L 109.33999999999995 264.43999999999994 C 113.50999999999995 271.25999999999993 113.43999999999994 277.54999999999995 110.10999999999994 283.50999999999993 C 107.34999999999994 288.38999999999993 102.39999999999995 292.5999999999999 95.85999999999994 296.3499999999999 C 93.90999999999994 297.6799999999999 91.60999999999994 298.9899999999999 89.20999999999994 300.3799999999999 C 83.27999999999994 303.76999999999987 76.73999999999994 307.5499999999999 74.59999999999994 312.39999999999986 C 72.87999999999994 316.28999999999985 74.39999999999993 318.40999999999985 75.94999999999993 321.95999999999987 z" stroke-linecap="round" />
</g>
<g transform="matrix(NaN NaN NaN NaN 0 0)"  >
<g style=""   >
</g>
</g>
<g transform="matrix(NaN NaN NaN NaN 0 0)"  >
<g style=""   >
</g>
</g>
<g transform="matrix(NaN NaN NaN NaN 0 0)"  >
<g style=""   >
</g>
</g>
<g transform="matrix(NaN NaN NaN NaN 0 0)"  >
<g style=""   >
</g>
</g>
<g transform="matrix(NaN NaN NaN NaN 0 0)"  >
<g style=""   >
</g>
</g>
<g transform="matrix(NaN NaN NaN NaN 0 0)"  >
<g style=""   >
</g>
</g>
</svg>